<svg width="25" height="24" viewBox="0 0 25 24" fill="none" xmlns="http://www.w3.org/2000/svg">
<g id="folder-upload">
<path id="Vector" d="M9.75 3C10.0468 3 10.3282 3.13182 10.5182 3.35982L12.719 6H21.25C22.3044 6 23.1682 6.81586 23.2445 7.85074L23.25 8V20C23.25 21.1046 22.3546 22 21.25 22H3.25C2.14543 22 1.25 21.1046 1.25 20V5C1.25 3.89543 2.14543 3 3.25 3H9.75ZM9.281 5H3.25V20H21.25V8H12.25C11.9532 8 11.6718 7.86818 11.4818 7.64018L9.281 5ZM11.7139 9.65569L11.7254 9.64838C11.7408 9.63891 11.7563 9.62989 11.772 9.62132C11.791 9.61103 11.8108 9.6011 11.8308 9.59182C11.8446 9.58545 11.8582 9.57953 11.8719 9.57394C11.893 9.56534 11.9145 9.5574 11.9363 9.5502C11.9537 9.54451 11.9714 9.53921 11.9893 9.53441C12.0077 9.52937 12.0264 9.52491 12.0453 9.52098C12.0648 9.517 12.0842 9.51357 12.1036 9.51071C12.1215 9.508 12.1402 9.50578 12.159 9.50409C12.1834 9.50192 12.2074 9.50062 12.2314 9.50017C12.2372 9.50006 12.2436 9.5 12.25 9.5L12.2695 9.50019C12.2925 9.50063 12.3155 9.50187 12.3385 9.5039L12.25 9.5C12.3006 9.5 12.3504 9.50376 12.399 9.51102C12.4157 9.51358 12.433 9.51664 12.4503 9.52016C12.4727 9.52464 12.4944 9.52983 12.5158 9.53572C12.5311 9.53999 12.5465 9.54462 12.5618 9.54963C12.5818 9.55612 12.6016 9.56332 12.6211 9.5711C12.6385 9.57809 12.6559 9.58557 12.673 9.59356C12.6939 9.60338 12.7143 9.61379 12.7343 9.62488C12.7462 9.6314 12.7585 9.63851 12.7706 9.6459C12.7963 9.66172 12.8211 9.67849 12.8452 9.69631C12.8511 9.70065 12.857 9.70511 12.8628 9.70965C12.8697 9.71507 12.8726 9.71737 12.8754 9.71969L12.9571 9.79289L16.4571 13.2929C16.8476 13.6834 16.8476 14.3166 16.4571 14.7071C16.0966 15.0676 15.5294 15.0953 15.1371 14.7903L15.0429 14.7071L13.25 12.915V17.5C13.25 18.0523 12.8023 18.5 12.25 18.5C11.7372 18.5 11.3145 18.114 11.2567 17.6166L11.25 17.5V12.916L9.45789 14.7141C9.09781 15.075 8.53061 15.1034 8.13798 14.7988L8.04368 14.7157C7.6828 14.3556 7.65444 13.7884 7.95902 13.3958L8.04211 13.3015L11.5344 9.80146C11.5656 9.76949 11.599 9.7396 11.6342 9.71202L11.6363 9.71033L11.7139 9.65569Z" fill="#6B7280"/>
</g>
</svg>
