<svg width="25" height="24" viewBox="0 0 25 24" fill="none" xmlns="http://www.w3.org/2000/svg">
<g id="Restaurant Logo">
<g id="Vector">
<path d="M15.1338 2H15.5409L15.8665 2.02787L16.3414 2.09756L16.7214 2.18118L17.2098 2.33449L17.4812 2.43206L17.8204 2.57143L18.1596 2.72474L18.6074 2.94774L18.933 3.12892L19.1773 3.28223L19.4758 3.47735L19.6929 3.6446L19.8421 3.7561L20.0321 3.90941L20.222 4.07665L20.3849 4.22997L20.7376 4.59233L20.8326 4.70383L21.009 4.92683L21.1583 5.12195L21.3346 5.37282L21.4703 5.58188L21.6196 5.81882L21.7688 6.06969L21.9588 6.41812L22.1216 6.75261L22.298 7.18467L22.4337 7.57491L22.5558 7.99303L22.6915 8.63415L22.7458 8.98258L22.8 9.45645V10.0279L22.7458 10.4739L22.6508 11.0453L22.5422 11.5052L22.4337 11.8955L22.2166 12.5226L22.0538 12.899L21.9045 13.2474L21.7688 13.5401L21.6332 13.8049L21.511 14.0418L21.3754 14.2927L21.0904 14.7805L20.9547 15.0035L20.7648 15.3101L20.5477 15.6307L20.4256 15.8118L20.2627 16.0488L20.0456 16.3415L19.8828 16.5645L19.7471 16.7596L19.5979 16.9408L19.4486 17.1359L19.2858 17.331L19.1908 17.4564L19.0144 17.6794L18.8652 17.8606L18.7431 18.0139L18.5802 18.1951L18.4717 18.3345L18.3496 18.4739L18.2275 18.6272L18.0511 18.8362L17.8882 19.0314L17.6983 19.2404L17.6033 19.3519L17.4405 19.5192L17.3455 19.6307L16.0294 20.9826H16.0022L15.9751 21.0383L15.4866 21.5401L15.3781 21.6376L15.2288 21.777L15.1338 21.8885L15.0253 21.9861L14.9574 22L14.876 21.9303L14.7811 21.8188L14.4554 21.4843L14.3604 21.3728L14.184 21.1916L14.0891 21.0801L13.2614 20.1742L13.1664 20.0767L13.0714 19.9652L12.8272 19.7143L12.7322 19.6028L12.4473 19.3101L12.3523 19.1986L12.2166 19.0592L12.1216 18.9477L11.9995 18.8223L11.9045 18.7108L11.8095 18.6132L11.7146 18.5017L11.5653 18.3345L11.4703 18.223L11.3482 18.0976L11.2532 17.9861L11.1447 17.8885L11.104 17.8746L8.48526 17.8885H6.68065L6.50426 17.8606L6.28716 17.7491L6.0972 17.6098L5.96151 17.4564L5.86653 17.2892L5.79869 17.0662L5.78512 16.9826V16.8711L5.82583 16.6481L5.92081 16.4251L6.07006 16.2578L6.16504 16.1742L6.34143 16.0627L6.50426 16.007L6.59923 15.993L6.91131 15.9791H9.39435L9.57074 15.9652L9.55717 15.8815L9.40792 15.6864L9.29937 15.5331L9.12298 15.2822L8.68879 14.6132L8.26816 13.9024L7.69829 13.9164H3.85839L3.682 13.8885L3.51918 13.8328L3.32922 13.7352L3.17997 13.6098L3.08499 13.4983L2.97644 13.3171L2.92217 13.1498L2.9086 13.0801V12.8432L2.9493 12.6481L3.01715 12.4808L3.12569 12.3415L3.22067 12.2439L3.4242 12.1045L3.61416 12.0348L3.80412 12.007L4.21118 11.993H7.35907L7.46762 11.9791L7.48119 11.9233L7.41335 11.6585L7.31837 11.1847L7.26409 10.8084L7.22339 10.4321L7.19625 10.0139L7.18268 9.72125L7.16911 9.65157H4.79462L4.61823 9.60976L4.40113 9.49826L4.29259 9.41463L4.14333 9.26132L4.03478 9.0662L3.98051 8.91289L3.95337 8.77352V8.56446L3.99408 8.39721L4.10263 8.17422L4.22474 8.03484L4.34686 7.92334L4.52325 7.81185L4.65894 7.77003L4.74035 7.7561H7.44048L7.50833 7.74216L7.53546 7.58885L7.64401 7.26829L7.80683 6.89199L7.95609 6.55749L8.11891 6.23693L8.2953 5.91638L8.44455 5.67944L8.56667 5.47038L8.75663 5.19164L8.89231 4.99652L9.01443 4.82927L9.08227 4.71777L9.12298 4.6899L9.13655 4.62021L9.04157 4.60627H8.47169L7.75256 4.62021H6.74849L6.355 4.60627L6.13791 4.56446L5.97508 4.49477L5.82583 4.39721L5.67658 4.2439L5.54089 4.04878L5.48662 3.90941L5.45948 3.77003V3.56098L5.50018 3.33798L5.60873 3.11498L5.78512 2.91986L6.00222 2.79443L6.12434 2.73868L6.26002 2.7108L10.7783 2.69686H13.2071L13.682 2.72474L14.1026 2.78049L14.3876 2.83624L14.7539 2.9338L14.9981 3.01742L15.3916 3.17073L15.5273 3.24042L15.6359 3.28223L15.9751 3.46341L16.1786 3.58885L16.3279 3.68641L16.545 3.83972L16.6806 3.96516L16.8299 4.09059L17.1013 4.34146L17.3591 4.60627L17.4812 4.75958L17.5762 4.87108L17.739 5.09408L17.9154 5.37282L18.0104 5.54007L18.2546 5.98606L18.3631 6.223L18.4446 6.36237L18.5531 6.58537L18.7159 6.89199L18.9059 7.19861L19.0416 7.39373L19.1908 7.61672L19.3401 7.8676L19.4486 8.09059L19.5572 8.36934L19.6386 8.63415L19.7336 9.0662L19.7743 9.38676V9.90244L19.7471 10.2509L19.6793 10.6132L19.5843 10.9617L19.5029 11.1847L19.3536 11.5192L19.218 11.7422L19.0551 11.9652L18.9466 12.0906L18.8787 12.1603L18.7431 12.2718L18.4988 12.4251L18.4038 12.4669L18.2275 12.5226L18.1325 12.5366H17.8882L17.6847 12.4808L17.4812 12.3972L17.2912 12.2718L17.2234 12.2021L17.0741 12.0627L16.8842 11.784L16.7349 11.5331L16.5721 11.1986L16.5043 11.0314L16.4093 10.7666L16.355 10.5714L16.2736 10.1533L16.2465 9.94425V9.49826L16.26 9.37282L16.2736 9.26132L16.3143 8.96864L16.4228 8.55052L16.5043 8.34146L16.6264 8.06272L16.8163 7.68641L16.9249 7.39373L16.952 7.25436V6.98955L16.9113 6.79443L16.8299 6.57143L16.6806 6.27875L16.4907 6L16.3686 5.83275L16.2057 5.63763L15.9344 5.35889L15.663 5.13589L15.4866 5.01045L15.2017 4.82927L14.9846 4.71777L14.7811 4.62021L14.4961 4.50871L14.1569 4.41115L13.7227 4.34146L13.4649 4.31359H13.18L12.8543 4.34146L12.5694 4.38328L12.2302 4.4669L11.9181 4.5784L11.6467 4.70383L11.3889 4.84321L11.0904 5.03833L10.7376 5.31707L10.5341 5.5122L10.3984 5.65157L10.3034 5.76307L10.1406 5.95819L9.99136 6.13937L9.78784 6.41812L9.65215 6.64111L9.5029 6.87805L9.36721 7.12892L9.2451 7.36585L9.10941 7.70035L9.01443 7.96516L8.91945 8.28571L8.8109 8.73171L8.74306 9.19164L8.71592 9.49826L8.70236 9.74913V10.0139L8.74306 10.4739L8.8109 10.892L8.91945 11.3659L9.08227 11.8955L9.19082 12.1882L9.39435 12.662L9.55717 13.0105L9.74713 13.3728L9.92352 13.6655L10.0728 13.9164L10.317 14.2927L10.7241 14.878L10.8598 15.0592L11.009 15.2404L11.1583 15.4355L11.3346 15.6585L11.4296 15.784L11.6196 16.0209L11.796 16.23L11.9588 16.4251L12.1352 16.6202L12.2302 16.7317L12.3659 16.885L12.4608 16.9965L12.583 17.1359L12.7051 17.2892L12.8 17.3868L12.895 17.4983L13.2207 17.8606L13.3428 17.9861L13.4378 18.0976L13.5735 18.2369L13.6684 18.3484L13.777 18.4599L13.872 18.5714L14.2926 19.0035L14.4011 19.101L14.6047 19.2683L14.7811 19.3798L14.9032 19.4355L14.9303 19.4495H15.0796L15.2152 19.4077L15.3645 19.338L15.5545 19.1986L15.663 19.0871L15.7716 18.9895L15.9615 18.7944L15.9751 18.7666H16.0022L16.0294 18.7108L16.0972 18.6551L16.1515 18.5714H16.1786L16.2057 18.5157H16.2329V18.4878L16.3007 18.4181L16.6264 18.0557L16.7349 17.9164L16.8299 17.8188L16.9792 17.6237L17.1013 17.4843L17.1962 17.3589L17.3048 17.2056H17.3319L17.3591 17.1498L17.549 16.9268L17.6576 16.7875L17.7797 16.6481L17.9018 16.4808L18.0104 16.3554L18.1053 16.23L18.2275 16.0627L18.336 15.9373L18.4581 15.784L18.5667 15.6446L18.6616 15.5192L18.7838 15.3519L19.0687 14.9756L19.1908 14.8084L19.2994 14.6551L19.3129 14.6272H19.3401L19.3672 14.5714L19.5029 14.3763L19.6657 14.1394L19.7607 14L19.91 13.777L20.0321 13.5819L20.1813 13.331L20.3713 12.9826L20.5341 12.6341L20.6969 12.216L20.819 11.8676L20.9276 11.5192L21.0497 10.9756L21.104 10.6132L21.1311 10.223V9.777L21.0768 9.23345L21.0361 8.96864L20.9276 8.53659L20.819 8.20209L20.6291 7.74216L20.5205 7.51916L20.3713 7.24042L20.1949 6.94774L20.0456 6.72474L19.91 6.52962L19.72 6.26481L19.5436 6.04181L19.3808 5.84669L19.2587 5.70732L19.0958 5.52613L18.9466 5.35889L18.3903 4.78746L18.2817 4.6899L18.0918 4.50871L17.9832 4.41115L17.8204 4.25784L17.6711 4.1324L17.5626 4.03484L17.4405 3.93728L17.3455 3.85366L17.2098 3.74216L16.9384 3.5331L16.5585 3.25436L16.0701 2.94774L15.6359 2.72474L15.3238 2.58537L14.9303 2.44599L14.5233 2.29268L14.3062 2.20906L14.2383 2.16725V2.13937L14.4147 2.08362L14.7539 2.02787L15.1338 2Z" fill="#6839FF"/>
<path d="M3.72271 2.50174H3.99408L4.21118 2.55749L4.33329 2.61324L4.49611 2.7108L4.68607 2.90592L4.80819 3.10105L4.8896 3.26829L4.95744 3.44948L4.99815 3.61672V3.74216L4.83533 4.11847L4.6725 4.31359L4.53682 4.45296L4.33329 4.60627L4.1162 4.6899L3.96694 4.73171H3.83126L3.62773 4.70383L3.3835 4.59233L3.22067 4.48084L3.04428 4.29965L2.92217 4.10453L2.84075 3.89547L2.80005 3.71429V3.46341L2.84075 3.26829L2.9086 3.08711L3.01715 2.91986L3.1664 2.76655L3.31565 2.65505L3.50561 2.55749L3.72271 2.50174Z" fill="#6839FF"/>
<path fill-rule="evenodd" clip-rule="evenodd" d="M13.3021 7.18467H12.2709L11.0768 7.19861L11.0633 7.21254L11.0361 13.4704V13.9303L11.0497 14.7805L11.0633 14.9895L11.0768 15.0174L11.2125 15.0035L11.4568 14.9199L11.6196 14.8362L11.9045 14.6551L12.0809 14.4739L12.2302 14.2927L12.4201 14L12.5015 13.8328L12.583 13.6376L12.6508 13.4007L12.6779 13.2195L12.7186 12.8153V12.2857L12.7051 12.1463L12.6915 11.8397H12.7322L12.8272 11.9652L12.99 12.2021L13.1393 12.4111L13.5463 12.9547L13.7091 13.1777L13.872 13.3868L14.2519 13.9164L14.4147 14.1394L14.564 14.3484L14.7268 14.5854L14.8218 14.7108L14.9032 14.8502L14.9981 14.9617L15.0931 15.0035H16.4635L16.8706 14.9895L17.0334 14.9756V14.9338L17.0063 14.892L16.8706 14.7387L16.7214 14.5436L16.5721 14.3624L16.4093 14.1672L16.1108 13.777L15.9344 13.554L15.7851 13.3589L15.6359 13.1777L15.5409 13.0523L15.2695 12.7038L15.1745 12.5784L15.0117 12.3833L14.8625 12.1882L14.7403 12.0209L14.6454 11.9094L14.5504 11.8258L14.5368 11.7561L14.564 11.7422L14.7946 11.6864L15.0931 11.5052L15.3102 11.3519L15.5545 11.101L15.6766 10.9338L15.758 10.8084L15.8123 10.6969L15.9208 10.5157L16.0022 10.3066L16.0429 10.1394L16.0701 10.0697L16.0972 9.90244L16.1108 9.87456L16.1379 9.59582L16.1108 9.24739L16.0836 9.03833L16.0022 8.74564L15.8937 8.4669L15.758 8.21603L15.663 8.06272L15.5138 7.8676L15.3781 7.74216L15.2017 7.60279L14.8218 7.40767L14.5097 7.29617L14.1433 7.22648L13.777 7.19861L13.3021 7.18467ZM12.8679 8.52265H12.7186L12.6915 8.55052L12.6779 9.0662L12.6644 10.1254V10.6132L12.6779 10.6551L12.7458 10.7247H12.9086L13.18 10.7108L13.4378 10.6829L13.777 10.6132L13.9805 10.5296L14.1162 10.4181L14.2654 10.223L14.3604 10L14.4011 9.777V9.5122L14.3876 9.38676L14.3333 9.16376L14.279 9.03833L14.184 8.89895L14.0484 8.77352L13.8855 8.67596L13.682 8.60627L13.3157 8.55052L12.8679 8.52265Z" fill="#6839FF"/>
</g>
</g>
</svg>
