<svg width="20" height="20" viewBox="0 0 20 20" fill="none" xmlns="http://www.w3.org/2000/svg">
<g id="star">
<path id="Vector (Stroke)" fill-rule="evenodd" clip-rule="evenodd" d="M9.99722 1.25C10.3145 1.24919 10.6048 1.42864 10.7458 1.71286L13.132 6.52073L18.4535 7.29668C18.767 7.34239 19.0274 7.56186 19.1256 7.86304C19.2238 8.16422 19.1427 8.49502 18.9164 8.71666L15.0457 12.5074L15.9648 17.7734C16.0195 18.0871 15.8907 18.4047 15.6328 18.5915C15.3748 18.7784 15.033 18.8019 14.7519 18.6521L9.9994 16.119L5.24797 18.652C4.96674 18.802 4.62463 18.7784 4.36665 18.5912C4.10867 18.4041 3.98001 18.0862 4.0352 17.7724L4.96095 12.5074L1.08405 8.71717C0.857363 8.49555 0.776058 8.1645 0.874291 7.86308C0.972524 7.56165 1.23328 7.34208 1.54702 7.29658L6.89743 6.52074L9.25101 1.7167C9.39061 1.43176 9.67992 1.25082 9.99722 1.25ZM10.0042 3.96758L8.20063 7.64896C8.07954 7.89612 7.84424 8.06755 7.57186 8.10704L3.45476 8.70405L6.44037 11.6229C6.63707 11.8152 6.7262 12.0922 6.67856 12.3631L5.9728 16.3769L9.60733 14.4393C9.85234 14.3087 10.1463 14.3087 10.3913 14.4393L14.0294 16.3784L13.3284 12.3621C13.2812 12.0917 13.3702 11.8154 13.5663 11.6234L16.5482 8.70314L12.4594 8.10695C12.1888 8.06749 11.9548 7.89777 11.8332 7.6528L10.0042 3.96758Z" fill="#38D0FF"/>
</g>
</svg>
