<svg width="20" height="20" viewBox="0 0 20 20" fill="none" xmlns="http://www.w3.org/2000/svg">
<g id="share-one">
<path id="Vector (Stroke)" fill-rule="evenodd" clip-rule="evenodd" d="M11.6667 4.58366C11.6667 2.97283 12.9725 1.66699 14.5833 1.66699C16.1942 1.66699 17.5 2.97283 17.5 4.58366C17.5 6.19448 16.1942 7.50033 14.5833 7.50033C13.769 7.50033 13.0327 7.16663 12.5036 6.62853L8.22756 9.21921C8.29649 9.46782 8.33333 9.72977 8.33333 10.0003C8.33333 10.2434 8.3036 10.4795 8.24758 10.7052L12.6009 13.2776C13.1212 12.7952 13.8178 12.5003 14.5833 12.5003C16.1942 12.5003 17.5 13.8062 17.5 15.417C17.5 17.0278 16.1942 18.3337 14.5833 18.3337C12.9725 18.3337 11.6667 17.0278 11.6667 15.417C11.6667 15.174 11.6964 14.9379 11.7524 14.7122L7.39908 12.1397C6.87875 12.6221 6.18214 12.917 5.41667 12.917C3.80585 12.917 2.5 11.6111 2.5 10.0003C2.5 8.38951 3.80585 7.08366 5.41667 7.08366C6.15373 7.08366 6.82695 7.35707 7.34042 7.808L11.7222 5.15321C11.6858 4.969 11.6667 4.77856 11.6667 4.58366ZM14.5833 3.33366C13.893 3.33366 13.3333 3.89331 13.3333 4.58366C13.3333 5.274 13.893 5.83366 14.5833 5.83366C15.2737 5.83366 15.8333 5.274 15.8333 4.58366C15.8333 3.89331 15.2737 3.33366 14.5833 3.33366ZM5.41667 8.75033C4.72632 8.75033 4.16667 9.30998 4.16667 10.0003C4.16667 10.6907 4.72632 11.2503 5.41667 11.2503C6.10701 11.2503 6.66667 10.6907 6.66667 10.0003C6.66667 9.30998 6.10701 8.75033 5.41667 8.75033ZM14.5833 14.167C13.893 14.167 13.3333 14.7266 13.3333 15.417C13.3333 16.1073 13.893 16.667 14.5833 16.667C15.2737 16.667 15.8333 16.1073 15.8333 15.417C15.8333 14.7266 15.2737 14.167 14.5833 14.167Z" fill="#38D0FF"/>
</g>
</svg>
